<svg width="512" height="512" viewBox="0 0 512 512" version="1.1" xmlns="http://www.w3.org/2000/svg"
     xmlns:xlink="http://www.w3.org/1999/xlink">
    <title>Circle Logo</title>
    <g id="{src}">
        <use xlink:href="#path1_fill" transform="translate(39 184)" fill="#FFFFFF"/>
    </g>
    <defs>
        <path id="path1_fill"
              d="M 43.3125 76.5859C 46.875 78.8828 49.3359 81.5547 50.6953 84.6016C 52.0547 87.6484 52.7344 92.8984 52.7344 100.352L 52.7344 110.758C 52.7344 115.398 53.1094 118.305 53.8594 119.477C 54.6562 120.695 56.1328 121.516 58.2891 121.938C 58.8047 122.078 59.5781 122.219 60.6094 122.359C 65.9062 123.156 68.5547 125.758 68.5547 130.164C 68.5547 132.32 67.7812 134.055 66.2344 135.367C 64.6875 136.68 62.625 137.336 60.0469 137.336C 56.7656 137.336 53.5781 136.797 50.4844 135.719C 47.4375 134.641 44.9063 133.164 42.8906 131.289C 40.6875 129.273 39.1172 126.672 38.1797 123.484C 37.2891 120.297 36.8438 114.836 36.8438 107.102L 36.8438 98.9453C 36.8438 90.5078 32.9531 85.6562 25.1719 84.3906C 24.8438 84.2969 24.6094 84.25 24.4688 84.25C 22.2188 83.875 20.5547 83.0781 19.4766 81.8594C 18.3984 80.6406 17.8594 78.8828 17.8594 76.5859C 17.8594 74.5703 18.3047 72.9766 19.1953 71.8047C 20.1328 70.6328 21.6094 69.7891 23.625 69.2734C 24.5156 68.9922 25.8047 68.6875 27.4922 68.3594C 33.7266 67.1875 36.8438 62.5469 36.8438 54.4375L 36.8438 46.0703C 36.8438 38.8984 37.1953 33.8828 37.8984 31.0234C 38.6016 28.1172 39.7969 25.5859 41.4844 23.4297C 43.4531 21.0391 46.0781 19.1875 49.3594 17.875C 52.6875 16.5156 56.3437 15.8359 60.3281 15.8359C 62.8125 15.8359 64.8047 16.4922 66.3047 17.8047C 67.8047 19.0703 68.5547 20.7578 68.5547 22.8672C 68.5547 27.2734 65.7188 29.9219 60.0469 30.8125C 59.5313 30.8594 59.1562 30.9063 58.9219 30.9531C 56.5781 31.3281 54.9609 32.1953 54.0703 33.5547C 53.1797 34.8672 52.7344 37.8906 52.7344 42.625L 52.7344 52.9609C 52.7344 59.9922 52.0312 65.1484 50.625 68.4297C 49.2188 71.7109 46.7812 74.4297 43.3125 76.5859ZM 111.094 108.016C 109.875 108.953 108.609 109.656 107.297 110.125C 106.031 110.641 104.719 110.898 103.359 110.898C 101.344 110.898 99.9141 110.359 99.0703 109.281C 98.2734 108.203 97.875 106.188 97.875 103.234L 97.875 93.8828C 97.875 90.7891 98.3906 88.6094 99.4219 87.3438C 100.453 86.0313 102.234 85.375 104.766 85.375C 107.531 85.375 109.781 86.7109 111.516 89.3828C 112.547 90.8359 113.414 91.9141 114.117 92.6172C 116.414 94.6797 119.086 96.2266 122.133 97.2578C 125.18 98.2891 128.648 98.8047 132.539 98.8047C 135.914 98.8047 138.609 98.1484 140.625 96.8359C 142.641 95.5234 143.648 93.8125 143.648 91.7031C 143.648 87.9062 138.234 85.2812 127.406 83.8281C 125.016 83.5469 123.141 83.2891 121.781 83.0547C 113.625 81.9297 107.555 79.7266 103.57 76.4453C 99.5859 73.1172 97.5938 68.6641 97.5938 63.0859C 97.5938 56.4766 99.9844 51.3672 104.766 47.7578C 109.547 44.1484 116.367 42.3438 125.227 42.3438C 128.273 42.3438 131.391 42.6016 134.578 43.1172C 137.812 43.5859 141.117 44.3359 144.492 45.3672C 145.477 44.1953 146.508 43.3281 147.586 42.7656C 148.711 42.2031 149.953 41.9219 151.312 41.9219C 153.234 41.9219 154.688 42.5313 155.672 43.75C 156.703 44.9219 157.219 46.7031 157.219 49.0938L 157.219 57.7422C 157.219 59.7578 156.703 61.3281 155.672 62.4531C 154.641 63.5312 153.188 64.0703 151.312 64.0703C 149.391 64.0703 146.086 62.4062 141.398 59.0781C 136.758 55.7031 132.094 54.0156 127.406 54.0156C 123.75 54.0156 120.914 54.625 118.898 55.8438C 116.883 57.0156 115.875 58.6562 115.875 60.7656C 115.875 64.0469 120.094 66.25 128.531 67.375C 130.969 67.6562 132.891 67.8906 134.297 68.0781C 144.891 69.625 152.156 71.9453 156.094 75.0391C 160.078 78.0859 162.07 82.6328 162.07 88.6797C 162.07 95.7578 159.445 101.242 154.195 105.133C 148.992 108.977 141.586 110.898 131.977 110.898C 128.227 110.898 124.617 110.641 121.148 110.125C 117.68 109.656 114.328 108.953 111.094 108.016ZM 212.977 70.8203L 212.977 93.6016L 229.57 93.6016C 232.758 93.6016 235.008 94.1875 236.32 95.3594C 237.68 96.5313 238.359 98.4766 238.359 101.195C 238.359 103.961 237.68 105.953 236.32 107.172C 235.008 108.391 232.758 109 229.57 109L 190.266 109C 187.031 109 184.734 108.391 183.375 107.172C 182.016 105.953 181.336 103.961 181.336 101.195C 181.336 98.4766 181.992 96.5313 183.305 95.3594C 184.664 94.1875 186.984 93.6016 190.266 93.6016L 195.609 93.6016L 195.609 59.4297L 192.586 59.4297C 189.398 59.4297 187.125 58.8438 185.766 57.6719C 184.453 56.4531 183.797 54.4609 183.797 51.6953C 183.797 48.9297 184.43 46.9609 185.695 45.7891C 187.008 44.6172 189.305 44.0312 192.586 44.0312L 207.562 44.0312C 208.828 44.0312 209.812 44.3125 210.516 44.875C 211.219 45.3906 211.57 46.1172 211.57 47.0547L 211.57 57.4609C 216.68 51.9766 221.437 48.0625 225.844 45.7188C 230.297 43.375 235.078 42.2031 240.188 42.2031C 244.828 42.2031 248.508 43.2578 251.227 45.3672C 253.945 47.4297 255.305 50.2188 255.305 53.7344C 255.305 56.4531 254.367 58.7031 252.492 60.4844C 250.617 62.2188 248.203 63.0859 245.25 63.0859C 243.141 63.0859 240.633 62.3125 237.727 60.7656C 234.867 59.2188 232.875 58.4453 231.75 58.4453C 229.5 58.4453 226.852 59.4531 223.805 61.4688C 220.758 63.4844 217.148 66.6016 212.977 70.8203ZM 323.508 47.8281C 324.07 46 324.937 44.6406 326.109 43.75C 327.328 42.8125 328.875 42.3438 330.75 42.3438C 333.281 42.3438 335.086 43.1172 336.164 44.6641C 337.242 46.1641 337.781 48.7891 337.781 52.5391L 337.781 64.0703C 337.781 66.9297 337.195 69.0391 336.023 70.3984C 334.852 71.7578 333.047 72.4375 330.609 72.4375C 328.875 72.4375 327.422 72.0391 326.25 71.2422C 325.078 70.4453 323.836 68.9219 322.523 66.6719C 320.648 63.4844 318.187 61.1406 315.141 59.6406C 312.094 58.0938 308.367 57.3203 303.961 57.3203C 298.477 57.3203 293.977 59.125 290.461 62.7344C 286.992 66.2969 285.258 70.8672 285.258 76.4453C 285.258 82.3047 287.062 87.0156 290.672 90.5781C 294.281 94.1406 299.133 95.9219 305.227 95.9219C 310.758 95.9219 316.242 94.3984 321.68 91.3516C 327.164 88.2578 330.516 86.7109 331.734 86.7109C 333.469 86.7109 334.898 87.3906 336.023 88.75C 337.195 90.0625 337.781 91.7266 337.781 93.7422C 337.781 98.1484 334.43 102.086 327.727 105.555C 321.07 109.023 313.148 110.758 303.961 110.758C 292.617 110.758 283.383 107.57 276.258 101.195C 269.18 94.8203 265.641 86.6172 265.641 76.5859C 265.641 66.7891 269.156 58.6328 276.188 52.1172C 283.219 45.6016 292.078 42.3438 302.766 42.3438C 306.375 42.3438 309.891 42.7891 313.312 43.6797C 316.734 44.5703 320.133 45.9531 323.508 47.8281ZM 388.969 76.5859C 385.547 74.4297 383.133 71.7109 381.727 68.4297C 380.32 65.1484 379.617 59.9922 379.617 52.9609L 379.617 42.625L 379.617 38.125C 379.617 35.9219 379.055 34.2578 377.93 33.1328C 376.805 31.9609 374.93 31.1875 372.305 30.8125C 368.883 30.3438 366.609 29.5469 365.484 28.4219C 364.359 27.2969 363.797 25.5859 363.797 23.2891C 363.797 20.9453 364.5 19.1172 365.906 17.8047C 367.359 16.4922 369.398 15.8359 372.023 15.8359C 375.492 15.8359 378.727 16.3516 381.727 17.3828C 384.727 18.4141 387.234 19.8672 389.25 21.7422C 391.547 23.8516 393.164 26.4766 394.102 29.6172C 395.039 32.7109 395.508 38.1953 395.508 46.0703L 395.508 54.4375C 395.508 62.5938 398.719 67.3047 405.141 68.5703C 406.688 68.8047 407.883 69.0391 408.727 69.2734C 410.695 69.7891 412.148 70.6563 413.086 71.875C 414.023 73.0469 414.492 74.6172 414.492 76.5859C 414.492 78.6484 414 80.3125 413.016 81.5781C 412.031 82.7969 410.555 83.6406 408.586 84.1094C 407.836 84.25 406.781 84.4375 405.422 84.6719C 398.812 85.9375 395.508 90.6953 395.508 98.9453L 395.508 107.102C 395.508 114.508 395.156 119.641 394.453 122.5C 393.75 125.406 392.555 127.867 390.867 129.883C 389.039 132.086 386.391 133.867 382.922 135.227C 379.5 136.633 375.914 137.336 372.164 137.336C 369.539 137.336 367.477 136.656 365.977 135.297C 364.523 133.984 363.797 132.133 363.797 129.742C 363.797 127.539 364.336 125.875 365.414 124.75C 366.539 123.625 368.836 122.781 372.305 122.219C 375.164 121.797 377.086 121.023 378.07 119.898C 379.102 118.773 379.617 116.969 379.617 114.484L 379.617 110.758L 379.617 100.352C 379.617 92.8984 380.297 87.6484 381.656 84.6016C 383.016 81.5547 385.453 78.8828 388.969 76.5859Z"/>
    </defs>
</svg>
